<mxfile host="app.diagrams.net" agent="Mozilla/5.0 (Macintosh; Intel Mac OS X 10_15_7) AppleWebKit/605.1.15 (KHTML, like Gecko) Version/17.5 Safari/605.1.15" version="24.7.7">
  <diagram name="Page-1" id="RO0Rvhw5XB5cv8HuC6RB">
    <mxGraphModel dx="662" dy="1038" grid="1" gridSize="10" guides="1" tooltips="1" connect="1" arrows="1" fold="1" page="1" pageScale="1" pageWidth="827" pageHeight="1169" math="0" shadow="0">
      <root>
        <mxCell id="0" />
        <mxCell id="1" parent="0" />
        <mxCell id="LD2fg-LUMsIoK6R-YnJ3-1" value="START" style="rounded=1;whiteSpace=wrap;html=1;" vertex="1" parent="1">
          <mxGeometry x="60" y="80" width="120" height="60" as="geometry" />
        </mxCell>
        <mxCell id="LD2fg-LUMsIoK6R-YnJ3-3" value="device configuration" style="text;html=1;align=center;verticalAlign=middle;whiteSpace=wrap;rounded=0;" vertex="1" parent="1">
          <mxGeometry x="410" y="130" width="60" height="30" as="geometry" />
        </mxCell>
        <mxCell id="LD2fg-LUMsIoK6R-YnJ3-5" value="" style="edgeStyle=orthogonalEdgeStyle;rounded=0;orthogonalLoop=1;jettySize=auto;html=1;" edge="1" parent="1" source="LD2fg-LUMsIoK6R-YnJ3-4" target="LD2fg-LUMsIoK6R-YnJ3-1">
          <mxGeometry relative="1" as="geometry" />
        </mxCell>
        <mxCell id="LD2fg-LUMsIoK6R-YnJ3-25" value="" style="edgeStyle=orthogonalEdgeStyle;rounded=0;orthogonalLoop=1;jettySize=auto;html=1;entryX=0.5;entryY=0;entryDx=0;entryDy=0;" edge="1" parent="1" source="LD2fg-LUMsIoK6R-YnJ3-27" target="LD2fg-LUMsIoK6R-YnJ3-28">
          <mxGeometry relative="1" as="geometry">
            <mxPoint x="120" y="390" as="targetPoint" />
          </mxGeometry>
        </mxCell>
        <mxCell id="LD2fg-LUMsIoK6R-YnJ3-4" value="Microprocessor initialises&amp;nbsp;" style="shape=process;whiteSpace=wrap;html=1;backgroundOutline=1;" vertex="1" parent="1">
          <mxGeometry x="60" y="220" width="120" height="60" as="geometry" />
        </mxCell>
        <mxCell id="LD2fg-LUMsIoK6R-YnJ3-21" value="" style="edgeStyle=orthogonalEdgeStyle;rounded=0;orthogonalLoop=1;jettySize=auto;html=1;" edge="1" parent="1" source="LD2fg-LUMsIoK6R-YnJ3-15" target="LD2fg-LUMsIoK6R-YnJ3-4">
          <mxGeometry relative="1" as="geometry" />
        </mxCell>
        <mxCell id="LD2fg-LUMsIoK6R-YnJ3-15" value="Sensor Â integration" style="swimlane;startSize=20;horizontal=0;childLayout=treeLayout;horizontalTree=1;sortEdges=1;resizable=0;containerType=tree;fontSize=12;" vertex="1" parent="1">
          <mxGeometry x="240" y="180" width="400" height="190" as="geometry" />
        </mxCell>
        <mxCell id="LD2fg-LUMsIoK6R-YnJ3-16" value="Arduino Nano" style="whiteSpace=wrap;html=1;" vertex="1" parent="LD2fg-LUMsIoK6R-YnJ3-15">
          <mxGeometry x="50" y="60" width="100" height="40" as="geometry" />
        </mxCell>
        <mxCell id="LD2fg-LUMsIoK6R-YnJ3-17" value="A9G GPS/GSM Sensor" style="whiteSpace=wrap;html=1;" vertex="1" parent="LD2fg-LUMsIoK6R-YnJ3-15">
          <mxGeometry x="240" y="20" width="100" height="40" as="geometry" />
        </mxCell>
        <mxCell id="LD2fg-LUMsIoK6R-YnJ3-18" value="" style="edgeStyle=elbowEdgeStyle;elbow=horizontal;html=1;rounded=1;curved=0;sourcePerimeterSpacing=0;targetPerimeterSpacing=0;startSize=6;endSize=6;" edge="1" parent="LD2fg-LUMsIoK6R-YnJ3-15" source="LD2fg-LUMsIoK6R-YnJ3-16" target="LD2fg-LUMsIoK6R-YnJ3-17">
          <mxGeometry relative="1" as="geometry" />
        </mxCell>
        <mxCell id="LD2fg-LUMsIoK6R-YnJ3-19" value="DS18B20 Temperature sensor" style="whiteSpace=wrap;html=1;" vertex="1" parent="LD2fg-LUMsIoK6R-YnJ3-15">
          <mxGeometry x="240" y="100" width="100" height="40" as="geometry" />
        </mxCell>
        <mxCell id="LD2fg-LUMsIoK6R-YnJ3-20" value="" style="edgeStyle=elbowEdgeStyle;elbow=horizontal;html=1;rounded=1;curved=0;sourcePerimeterSpacing=0;targetPerimeterSpacing=0;startSize=6;endSize=6;" edge="1" parent="LD2fg-LUMsIoK6R-YnJ3-15" source="LD2fg-LUMsIoK6R-YnJ3-16" target="LD2fg-LUMsIoK6R-YnJ3-19">
          <mxGeometry relative="1" as="geometry" />
        </mxCell>
        <mxCell id="LD2fg-LUMsIoK6R-YnJ3-32" value="" style="edgeStyle=orthogonalEdgeStyle;rounded=0;orthogonalLoop=1;jettySize=auto;html=1;" edge="1" source="LD2fg-LUMsIoK6R-YnJ3-16" target="LD2fg-LUMsIoK6R-YnJ3-33" parent="LD2fg-LUMsIoK6R-YnJ3-15">
          <mxGeometry relative="1" as="geometry" />
        </mxCell>
        <mxCell id="LD2fg-LUMsIoK6R-YnJ3-33" value="ESP-01&amp;nbsp;&lt;div&gt;Wifi Module&lt;/div&gt;" style="whiteSpace=wrap;html=1;" vertex="1" parent="LD2fg-LUMsIoK6R-YnJ3-15">
          <mxGeometry x="80" y="130" width="100" height="40" as="geometry" />
        </mxCell>
        <mxCell id="LD2fg-LUMsIoK6R-YnJ3-26" value="" style="edgeStyle=orthogonalEdgeStyle;rounded=0;orthogonalLoop=1;jettySize=auto;html=1;" edge="1" parent="1" source="LD2fg-LUMsIoK6R-YnJ3-4" target="LD2fg-LUMsIoK6R-YnJ3-27">
          <mxGeometry relative="1" as="geometry">
            <mxPoint x="120" y="280" as="sourcePoint" />
            <mxPoint x="120" y="390" as="targetPoint" />
          </mxGeometry>
        </mxCell>
        <mxCell id="LD2fg-LUMsIoK6R-YnJ3-27" value="Yes" style="text;html=1;align=center;verticalAlign=middle;whiteSpace=wrap;rounded=0;" vertex="1" parent="1">
          <mxGeometry x="90" y="320" width="60" height="30" as="geometry" />
        </mxCell>
        <mxCell id="LD2fg-LUMsIoK6R-YnJ3-36" value="" style="edgeStyle=orthogonalEdgeStyle;rounded=0;orthogonalLoop=1;jettySize=auto;html=1;" edge="1" parent="1" source="LD2fg-LUMsIoK6R-YnJ3-28" target="LD2fg-LUMsIoK6R-YnJ3-35">
          <mxGeometry relative="1" as="geometry" />
        </mxCell>
        <mxCell id="LD2fg-LUMsIoK6R-YnJ3-28" value="Data Collection/&lt;div&gt;Transfer&lt;/div&gt;" style="shape=process;whiteSpace=wrap;html=1;backgroundOutline=1;" vertex="1" parent="1">
          <mxGeometry x="60" y="400" width="120" height="60" as="geometry" />
        </mxCell>
        <mxCell id="LD2fg-LUMsIoK6R-YnJ3-40" value="" style="edgeStyle=orthogonalEdgeStyle;rounded=0;orthogonalLoop=1;jettySize=auto;html=1;entryX=0;entryY=0.5;entryDx=0;entryDy=0;" edge="1" parent="1" source="LD2fg-LUMsIoK6R-YnJ3-35" target="LD2fg-LUMsIoK6R-YnJ3-38">
          <mxGeometry relative="1" as="geometry">
            <mxPoint x="240" y="570" as="targetPoint" />
          </mxGeometry>
        </mxCell>
        <mxCell id="LD2fg-LUMsIoK6R-YnJ3-41" value="" style="edgeStyle=orthogonalEdgeStyle;rounded=0;orthogonalLoop=1;jettySize=auto;html=1;" edge="1" parent="1" source="LD2fg-LUMsIoK6R-YnJ3-35" target="LD2fg-LUMsIoK6R-YnJ3-37">
          <mxGeometry relative="1" as="geometry" />
        </mxCell>
        <mxCell id="LD2fg-LUMsIoK6R-YnJ3-35" value="Data Processing" style="rhombus;whiteSpace=wrap;html=1;" vertex="1" parent="1">
          <mxGeometry x="80" y="530" width="80" height="80" as="geometry" />
        </mxCell>
        <mxCell id="LD2fg-LUMsIoK6R-YnJ3-43" value="" style="edgeStyle=orthogonalEdgeStyle;rounded=0;orthogonalLoop=1;jettySize=auto;html=1;" edge="1" parent="1" source="LD2fg-LUMsIoK6R-YnJ3-37" target="LD2fg-LUMsIoK6R-YnJ3-42">
          <mxGeometry relative="1" as="geometry" />
        </mxCell>
        <mxCell id="LD2fg-LUMsIoK6R-YnJ3-45" value="" style="edgeStyle=orthogonalEdgeStyle;rounded=0;orthogonalLoop=1;jettySize=auto;html=1;" edge="1" parent="1" source="LD2fg-LUMsIoK6R-YnJ3-37" target="LD2fg-LUMsIoK6R-YnJ3-44">
          <mxGeometry relative="1" as="geometry" />
        </mxCell>
        <mxCell id="LD2fg-LUMsIoK6R-YnJ3-37" value="Dashboard&amp;nbsp;&lt;div&gt;Updates&lt;/div&gt;" style="shape=parallelogram;perimeter=parallelogramPerimeter;whiteSpace=wrap;html=1;fixedSize=1;" vertex="1" parent="1">
          <mxGeometry x="70" y="670" width="120" height="60" as="geometry" />
        </mxCell>
        <mxCell id="LD2fg-LUMsIoK6R-YnJ3-38" value="InfluxDB" style="shape=datastore;whiteSpace=wrap;html=1;" vertex="1" parent="1">
          <mxGeometry x="260" y="540" width="60" height="60" as="geometry" />
        </mxCell>
        <mxCell id="LD2fg-LUMsIoK6R-YnJ3-42" value="End" style="rounded=1;whiteSpace=wrap;html=1;" vertex="1" parent="1">
          <mxGeometry x="70" y="810" width="120" height="40" as="geometry" />
        </mxCell>
        <mxCell id="LD2fg-LUMsIoK6R-YnJ3-44" value="Database" style="shape=datastore;whiteSpace=wrap;html=1;" vertex="1" parent="1">
          <mxGeometry x="260" y="670" width="60" height="60" as="geometry" />
        </mxCell>
        <mxCell id="LD2fg-LUMsIoK6R-YnJ3-46" value="iot data only" style="text;html=1;align=center;verticalAlign=middle;whiteSpace=wrap;rounded=0;" vertex="1" parent="1">
          <mxGeometry x="350" y="540" width="60" height="30" as="geometry" />
        </mxCell>
        <mxCell id="LD2fg-LUMsIoK6R-YnJ3-47" value="Entire System Data" style="text;html=1;align=center;verticalAlign=middle;whiteSpace=wrap;rounded=0;" vertex="1" parent="1">
          <mxGeometry x="340" y="685" width="60" height="30" as="geometry" />
        </mxCell>
      </root>
    </mxGraphModel>
  </diagram>
</mxfile>
